<?xml version="1.0" encoding="UTF-8" standalone="no"?>
<!DOCTYPE svg PUBLIC "-//W3C//DTD SVG 1.1//EN" "http://www.w3.org/Graphics/SVG/1.1/DTD/svg11.dtd">
<svg width="100%" height="100%" viewBox="0 0 3334 3334" version="1.1" xmlns="http://www.w3.org/2000/svg" xmlns:xlink="http://www.w3.org/1999/xlink" xml:space="preserve" xmlns:serif="http://www.serif.com/" style="fill-rule:evenodd;clip-rule:evenodd;stroke-linejoin:round;stroke-miterlimit:1.41421;">
    <g transform="matrix(1,0,0,1,-555.556,-555.556)">
        <g transform="matrix(1,0,0,1,34.5456,-38.8638)">
            <path d="M1074.55,2887.09L1240.05,2732.73L1577.82,2732.73L1327.32,2985.5L1074.55,3098.94L1074.55,2887.09Z"/>
        </g>
        <g transform="matrix(1,0,0,1,86.3639,-103.637)">
            <path d="M1413.32,3132.8L1450.47,3385.73L1818.36,3201.78L1821.9,2758.88L1690.1,2985.5L1620.27,2872.19L1413.32,3132.8Z"/>
        </g>
        <path d="M1413.32,2611.03L1721.08,2439.46L2044.64,2404.94L1746.73,2618.1L1413.32,2611.03Z"/>
        <path d="M1417.1,1377.06L1523.81,1710.73L2129.6,2222.22L1875.9,1710.73L1719.37,1333.87L1417.1,1377.06Z"/>
        <path d="M1973.06,1592.97L2222.22,1333.87L2222.22,1710.73L2296.93,2222.22L1973.06,1592.97Z"/>
        <g transform="matrix(1,0,0,1,-86.3639,-16.61)">
            <path d="M2442.67,1614.56L2734.14,1533.59L2842.1,1922.23L2458.86,2222.22L2442.67,1614.56Z"/>
        </g>
        <path d="M1865.11,2222.22L1523.81,2481.86L1417.1,2343.25L1670.79,2222.22L1865.11,2222.22Z"/>
        <path d="M1492.66,1877.91L1325.33,2024.79L1519.65,2084.16L1773.35,2089.56L1492.66,1877.91Z"/>
        <g transform="matrix(1,0,0,1,-90.6821,0)">
            <path d="M3888.89,2222.22L3441.25,2352.04L2993.24,2352.04L3287.43,2481.86L3446.65,2758.88L3888.89,2748.08L3888.89,2222.22Z"/>
        </g>
        <path d="M1258.47,555.556L1525.51,933.246L1593.54,1228.77L1235.52,1265.49L1360.73,1658.91L555.556,936.882L555.556,555.556L1258.47,555.556Z"/>
        <g transform="matrix(1,0,0,1,-141.645,94.0965)">
            <path d="M3888.89,555.556L3888.89,1044.29L3310.74,1436.17L2886.59,1402.13L3136.9,1157.22L3193.03,849.575L3383.67,555.556L3888.89,555.556Z"/>
        </g>
        <path d="M3888.89,1188.76L3278.1,1710.73L2864.99,1632.69L3034.83,2068.75L3475.47,2197.27L3888.89,2065.47L3888.89,1188.76Z"/>
        <g transform="matrix(1,0,0,1,17.2728,-90.6821)">
            <path d="M2864.99,3888.89L2640.08,3542.16L2337.07,3236.22L2299,2809.92L1953.06,3230.04L1905.67,3888.89L2864.99,3888.89Z"/>
        </g>
        <g transform="matrix(1,0,0,1,-56.1365,-146.819)">
            <path d="M2481.53,3224.47L2746.84,3437.19L2696.23,2905.7L2431.96,2566.2L2481.53,3224.47Z"/>
        </g>
        <path d="M2036.58,2897.71L1986.84,2548.76L2222.22,2400.9L2285.31,2613.7L2036.58,2897.71Z"/>
        <g transform="matrix(1,0,0,1,-90.6821,0)">
            <path d="M3126.63,3888.89L2864.99,3476.08L2864.99,2985.5L3441.06,3319.6L3888.89,3583.34L3888.89,3888.89L3126.63,3888.89Z"/>
        </g>
        <path d="M3888.89,2887.3L3376.94,2890.07L3169.68,2758.88L3183.5,3039.3L3888.89,3437.19L3888.89,2887.3Z"/>
        <g transform="matrix(1,0,0,1,-190.001,-34.5456)">
            <path d="M3280.22,2682.79L3169.68,2533.55L2577.1,2303.44L2864.99,2728.42L3061.87,2649.3L3280.22,2682.79Z"/>
        </g>
        <g transform="matrix(1,0,0,1,-86.3639,-47.5001)">
            <path d="M3062.23,2758.88L3106.12,2985.5L2864.99,2897.71L2808.92,2785.02L3062.23,2758.88Z"/>
        </g>
        <g transform="matrix(1,0,0,1,80.1302,0)">
            <path d="M1703.71,3888.89L1813.87,3304.06L1419.12,3487.08L1263.06,3156.6L1028.96,3888.89L1703.71,3888.89Z"/>
        </g>
        <g transform="matrix(1,0,0,1,69.0911,-107.955)">
            <path d="M555.556,3888.89L882.083,3888.89L1028.96,3477.9L889.088,2932.64L555.556,3168.03L555.556,3888.89Z"/>
        </g>
        <g transform="matrix(1,0,0,1,68.0377,0)">
            <path d="M555.556,1239.6L1273.88,1823.73L1074.84,2094.16L1360.85,2185.55L1231.87,2317.22L555.556,2186.65L555.556,1239.6Z"/>
        </g>
        <g transform="matrix(1,0,0,1,0,-30.0256)">
            <path d="M555.556,2404.86L1028.96,2406.06L1325.55,2524.85L1028.96,2640.16L856.341,2823.88L555.556,3015.52L555.556,2404.86Z"/>
        </g>
        <g transform="matrix(1,0,0,1,0,107.955)">
            <path d="M1525.51,555.556L1776.46,805.284L1810.05,1133.14L1916.93,1409.03L2222.22,1133.14L2222.22,555.556L1525.51,555.556Z"/>
        </g>
        <path d="M2383.29,555.556L2464.26,1220.1L2356.3,1516.98L2734.14,1252.49L2998.64,750.917L3090.4,555.556L2383.29,555.556"/>
        <path d="M3143.46,2197.27L2923.36,2277.05L2556.02,2197.27L2808.39,2061.56L3143.46,2197.27Z"/>
    </g>
</svg>
